<svg xmlns="http://www.w3.org/2000/svg" width="500" height="560" viewBox="0 0 500 560" fill="none">
  <defs>
    <linearGradient id="bg" x1="0" y1="0" x2="500" y2="560" gradientUnits="userSpaceOnUse">
      <stop offset="0%" stop-color="#0f0c29"/>
      <stop offset="50%" stop-color="#1a1a3e"/>
      <stop offset="100%" stop-color="#302b63"/>
    </linearGradient>
    <linearGradient id="accent" x1="80" y1="120" x2="420" y2="440" gradientUnits="userSpaceOnUse">
      <stop offset="0%" stop-color="#a78bfa"/>
      <stop offset="45%" stop-color="#864cff"/>
      <stop offset="100%" stop-color="#d946ef"/>
    </linearGradient>
    <linearGradient id="gold" x1="0" y1="0" x2="1" y2="1">
      <stop offset="0%" stop-color="#fbbf24"/>
      <stop offset="100%" stop-color="#f59e0b"/>
    </linearGradient>
    <filter id="glow" x="-20%" y="-20%" width="140%" height="140%">
      <feGaussianBlur stdDeviation="18" result="b"/>
      <feMerge><feMergeNode in="b"/><feMergeNode in="SourceGraphic"/></feMerge>
    </filter>
  </defs>
  <rect width="500" height="560" rx="32" fill="url(#bg)"/>
  <circle cx="90" cy="100" r="120" fill="#864cff" opacity="0.18" filter="url(#glow)"/>
  <circle cx="410" cy="460" r="140" fill="#c084fc" opacity="0.14" filter="url(#glow)"/>
  <rect x="24" y="24" width="452" height="512" rx="24" stroke="rgba(255,255,255,0.12)" stroke-width="2"/>
  <rect x="36" y="36" width="428" height="72" rx="18" fill="rgba(255,255,255,0.06)" stroke="rgba(255,255,255,0.08)"/>
  <rect x="52" y="52" width="40" height="40" rx="12" fill="#7c3aed"/>
  <text x="74" y="80" text-anchor="middle" fill="#fff" font-family="system-ui,Segoe UI,sans-serif" font-size="22" font-weight="700">V</text>
  <text x="108" y="66" fill="#e4e4e7" font-family="system-ui,Segoe UI,sans-serif" font-size="18" font-weight="600">ViralRefer</text>
  <text x="108" y="90" fill="#a1a1aa" font-family="system-ui,Segoe UI,sans-serif" font-size="13">Winner spotlight</text>
  <g transform="translate(250 210)">
    <circle cx="0" cy="0" r="56" fill="url(#gold)" opacity="0.95"/>
    <path d="M-18 8 L0 -28 L18 8 L10 8 L10 22 L-10 22 L-10 8 Z" fill="#0f0c29"/>
    <rect x="-22" y="22" width="44" height="10" rx="4" fill="#0f0c29"/>
  </g>
  <text x="250" y="310" text-anchor="middle" fill="#ffffff" font-family="system-ui,Segoe UI,sans-serif" font-size="34" font-weight="800" letter-spacing="-0.5">#1 FEATURED</text>
  <text x="250" y="348" text-anchor="middle" fill="url(#accent)" font-family="system-ui,Segoe UI,sans-serif" font-size="22" font-weight="700">Homepage Spotlight</text>
  <text x="250" y="390" text-anchor="middle" fill="#d4d4d8" font-family="system-ui,Segoe UI,sans-serif" font-size="16">Banner feature • Open worldwide</text>
  <rect x="80" y="420" width="340" height="52" rx="16" fill="rgba(134,76,255,0.25)" stroke="rgba(167,139,250,0.45)" stroke-width="1.5"/>
  <text x="250" y="452" text-anchor="middle" fill="#34d399" font-family="system-ui,Segoe UI,sans-serif" font-size="17" font-weight="700">Free · No cash prize</text>
  <text x="250" y="510" text-anchor="middle" fill="#71717a" font-family="system-ui,Segoe UI,sans-serif" font-size="13">Swap this banner anytime in Admin → Edit</text>
</svg>